<?xml version="1.0" encoding="utf-8"?>
<!-- Generator: Adobe Illustrator 24.1.0, SVG Export Plug-In . SVG Version: 6.00 Build 0)  -->
<svg version="1.1" id="svg2" xmlns:svg="http://www.w3.org/2000/svg"
	 xmlns="http://www.w3.org/2000/svg" xmlns:xlink="http://www.w3.org/1999/xlink" x="0px" y="0px" viewBox="0 0 550 550"
	 style="enable-background:new 0 0 550 550;" xml:space="preserve">
<style type="text/css">
	.st0{fill-rule:evenodd;clip-rule:evenodd;fill:#F8CFFF;stroke:#FFFFFF;stroke-width:2;}
	.st1{font-family:'ArialMT';}
	.st2{font-size:10px;}
</style>
<path id="Padre_Hurtado" class="st0" d="M60.6,380.6l19,18.8l-6.9,4.4l-4.9-4.9l-7.1,7.3l-3.8-2.9l-6.2,7.5l4.9,4l-3.8,3.5l3.3,2
	l-6.6,15.1l-7.3,1.1l-8.2-8.9l9.5-6.2l-3.1-3.3l4-2.9l-5.1-6.2l-5.3-0.9l-10.4,13.1l-4-2l17.7-17.9l-10.4-13.5V385l8.2-4.4l4.9,8.2
	l5.1-2.7l5.5,4.7L60.6,380.6z"/>
<path id="Maipú" class="st0" d="M79.6,399.3l-26-25.2l13-10.9l-13.4-9.7l4.6-15.1c1-14.6-5-40.2,2.9-43.7l34.8-9.2l-18.1-5.9
	L109,259l-7.5-13.6l0-4.8l32.7,6.7l-0.4,5.5l6.7-5.7l0.2,2.7l12.8,4.2l-2.6,14.3l-8.1,0.2l-0.2,18.7c-1.5-0.4-3.1,2.2-4.6,7.1
	l-5.9,15.1h21.4l6.7,5.5l-59.6,88.6L79.6,399.3z"/>
<path id="Cerrillos" class="st0" d="M153.5,254l-2.6,14.3l-8.1,0.2l-0.2,18.7c-1.5-0.4-3.1,2.2-4.6,7.1l-5.9,15.1h21.4l6.7,5.5
	L149.4,331l25.5,11.3l0.5-13.3l24.4-65.7l-0.4-4.8l-33.2,8.5L153.5,254z"/>
<path id="Estación_Central" class="st0" d="M141.5,227.2l0.7,20l-1.8-0.1l0.3,3l12.8,4l12.5,13.1l33.8-8.7l15.6,0.3l-0.4-8.7
	l-8.2,0.5c1.8-5.1,1-20.3,1.5-30.5l-2-0.5v-9.2l-15.8,0.8v5l-17.9,1.1l0.9,13.5c-7.6,3.2-9.6,1.9-12.5,1.4L141.5,227.2z"/>
<path id="Pudahuel" class="st0" d="M70.4,86.4L91,106l6.3,7.3l10.6,8l-31.5,32.9l-0.7,17.6l4,0.7l0.3,2l2.3,3.7l3,3.7l4,3L95,186
	l1.3-3.3l2.3,3.3l5.6,2l9,0.3l4.3,2l8.6,0.3l3-0.3l-0.3,23.6l2.6,0.5l-0.1,10.5l10.3,2.4l0.6,20l-1.7-0.1l-6.9,5.8l0.4-5.5l-33.5-7
	l-1-7c-1.5-6.4-8.3-2.7-12.9-3c1.1,5.9-4,7.9-8.3,10.3c-2.6-4.9-11.4-4.3-17.6-6l-1,4.6c-7.2,0.7-13-4.6-15.6-2.3
	c-1.8-1.5-0.9-5.3-6.3-4c-3.7,0.1-5.8,1.4-2,6.6c-3.5,7.3-7.5,4.1-11.5,2.1l-4-9.5l3.1-7.3l4.5-3.6c-2.8-0.7-4.7-2.6-3.2-9.2
	c2-3,5.6-4.8,1.5-11.9l5.5-4l-0.9-5.7l15.9-5.6l-0.1-3.1l4.9,1.9l3.9-4.9l-1.7-9.6l3.7,0.3c1.3-20.5-6.6-49.5-2.3-63.8l16.6-1.3
	L70.4,86.4z"/>
<path id="Lo_Prado" class="st0" d="M129.1,199.5l-0.2,14.4l2.6,0.6l-0.1,10.5l29.1,6.9c6.2,2,10.1-0.2,12.9-1.3l-0.9-13.5l-0.6-15.7
	l-18.6-1.9l-0.6,3.6l-9.1-4.2L129.1,199.5z"/>
<path id="Cerro_Navia" class="st0" d="M75.8,171.7l0.1-5.1l12.8,0.1l0.4,1.6l4.7,0.1l7.2-3.6l11.3-0.1h30l3.2,1.3l4.7-3h2.9l6.2,4.8
	l-6.6,35.5l-9.1-4.1l-14.5,0.5l0.1-9.3l-3,0.3l-8.6-0.3l-4.3-2l-9-0.3l-5.6-2l-2.3-3.3L95,186l-5.6-1.3l-4-3l-3-3.7l-2.3-3.7l-0.3-2
	L75.8,171.7z"/>
<path id="Santiago" class="st0" d="M205.2,261.7l12.3,0.4v-4h-2.6l40,0.9l20.9-9.7l-15.1-53.6l-45.2-12.4l0.4,3
	c-4.1-0.1-11-6-11.4,1.8l1.1,14.3l-15.1,0.9l0.1,7.8l15.8-0.8v9.2l2,0.5c-0.5,10.2,0.3,25.4-1.5,30.5l8.2-0.5l0.2,8.7l-9.6,0"/>
<path id="Renca" class="st0" d="M112.1,124.1l-4.2-2.9l-31.5,32.9l-0.5,12.5l12.8,0.1l0.4,1.6l4.7,0.1l7.2-3.6l11.3-0.1h30l3.2,1.3
	l4.7-3h2.9l0-2.5l3.4,0.2l6.6-3.7h11.8l9.4,7.1l6.4,6.6l8.3,5.3l16.5,7.4l0.1-2.2l-9.3-10l-1.8-18.8l-1.8-3.9l-11.3-20.5l-4.5-11.7
	l-1.6,2.7h-1.3l-0.5-2l-6.1,3l-3.9,0.1l-8.3,10.8l-3.2,0.1l-2.5-1.3l-6.2,4.4h-5.1l-0.2-1.3l-3.2-0.2l-0.3,1.3l-2.9-0.2l-0.3-0.7
	l-2.9-0.1l-0.7,1l-2.9-0.2l-0.9,1.4l-4.5-5.1l-2.2-0.1L126,129l-1,1.3h-6.8l-2.9-3.1l-0.1-3L112.1,124.1z"/>
<path id="Quinta_Normal" class="st0" d="M215.8,186.4l-0.4-3l-16.5-7.4l-8.3-5.3l-6.4-6.6l-9.4-7.1h-11.8l-6.6,3.7l-3.4-0.2l0,2.5
	l6.2,4.8l-5.9,31.8l18.6,1.9l0.6,15.7l17.9-1.1v-5l-0.1-7.8l15.1-0.9l-1.1-14.3C204.7,180.3,211.7,186.3,215.8,186.4z"/>
<path id="Recoleta" class="st0" d="M260.5,195.8l-19.9-5.5l1.8-20.6l-4.1-0.2l0.2-16.7h-2.9l-3.1-2.3l0.3-5.4l-2-2.1l1.5-0.8
	l-0.2-26.7l-0.6-0.2v-3.9l0.8-0.2l0.5-2.9l23.4,11.1l36,28.4l-0.1,5.5l-9.3,6.1l-1.5,3.9L273,172h-3.5l-5.1,3.7l-1,6.8l-3.9,7.4h1.2
	L260.5,195.8z"/>
<path id="Independencia" class="st0" d="M212.2,144.5l-9.7,4.1l1.8,3.9l1.8,18.8l9.3,10l-0.1,2.2l25.3,6.9l1.8-20.6l-4.1-0.2
	l0.2-16.7h-2.9l-3.1-2.3l0.3-5.4l-2-2.1l-11.1-0.3L212.2,144.5z"/>
<path id="Quilicura" class="st0" d="M94,103.4l-3,2.5l6.3,7.3l14.8,10.9l3,0.1l0.1,3l2.9,3.1h6.8l1-1.3l1.1,1.3l2.2,0.1l4.5,5.1
	l0.9-1.4l2.9,0.2l0.7-1l2.9,0.1l0.3,0.7l2.9,0.2l0.3-1.3l3.2,0.2l0.2,1.3h5.1l6.2-4.4l2.5,1.3l3.2-0.1l8.3-10.8l3.9-0.1l6.1-3l0.5,2
	h1.3l1.6-2.7l-8.3-21v-2.6l14.2-0.1l-5.4-15.2v-6.2l1.9-1.3l-0.1-3.4l2.7-0.8c5.6-15.7,6.2-7.6,10.7-12.8c0.2-2-0.2-3.4-2.1-3.8
	v-5.6v-5.8h-5l-2-4.1c-0.2-1.8,0.8-1.4,1.9-1l0.8,2.9c-0.5-2.9,2.9-7.3-7.1-6.4c-2.3-2-1.9-5.6-8-5.4l-2.9,1.7l-4.1-0.3l-5.2-4.4
	L160,21l-2,10.7l-26,7l21.8,28.4h-2.4l0.1,2.9h-10.7l0.1-4.7H134l0.1,9l-1.5-0.2c-1.4-0.8,0.2,0.7-5.4-3.1l0.2-4.1
	c-2.6-2.8-6.3-1.4-9.8-0.9c2,1.4,4.3,3.2,5.1,3.1l-6.6-0.1c-0.1,1.1-1.1,1.7-4,1.3L107.6,83h-5l-0.3,10.6l-8.2,8.6V103.4z"/>
<path id="Conchalí" class="st0" d="M230.8,143l1.5-0.8l-0.2-26.7l-0.6-0.2v-3.9l0.8-0.2l0.5-2.9l-33.2-14.6l-7.1-1.1l-14.2,0.1v2.6
	l8.3,21l4.5,11.7l11.3,20.5l9.7-4.1l7.5-1.8L230.8,143z"/>
<path id="San_Bernardo" class="st0" d="M175,341.9l26,11.3l-9.1,25.7l-3.8-1.5v13.2l-6.8,14l33.6,14.3l14.7,3l-15.1,61.5l5.7,6.8
	l-0.8,1.1l1.9,2.3l-4.9,1.5l11.3,21.5l-0.8,9.8h-3.8l-1.5-8.3l-3.8,0.4l-0.8-3.4l-24.9,2.3l-1.5-4.5l-1.9,0.4l1.5,7.2l4.9,3h3
	l0.8,1.5l4.9,0.4l-0.8,1.5l-15.9,4.5l-5.3-0.4l-13.6-7.5l4.2-9.8l-4.5-23.8l-3.4-0.8l-4.2-12.1l2.3-5.7l-4.2-0.8l-2.6,1.9l-6.4-1.1
	l1.1-6.4l4.9-13.6l-2.3-3.4h-3.4l-1.1-4.5l-0.8-3l-3.4-2.3l3-7.5l-5.7-5.3l1.5-7.2l2.3-2.6l-0.8-4.9l5.7-5.7l1.9-26l7.9-13.6
	l6.8,4.2L175,341.9z"/>
<path id="El_Bosque" class="st0" d="M201,353.2l23.2,9.6l17.4,2.7l-11.9,56.4l-14.7-3l-33.6-14.3l6.8-14v-13.2l3.8,1.5L201,353.2z"
	/>
<path id="La_Cisterna" class="st0" d="M241.6,365.6l-17.4-2.7l-23.2-9.6l17.3-43.9l34.1,9.6L241.6,365.6z"/>
<path id="Lo_Espejo" class="st0" d="M175.4,329.1l-0.4,12.9l26,11.3l17.3-43.9l-30.8-13.1L175.4,329.1z"/>
<path id="Pedro_Aguirre_Cerda" class="st0" d="M217.5,258.2l20.5,0.5l-19.6,50.7l-30.8-13.1l12.2-32.9l-0.4-4.8l6.1,0.1l-0.2,3
	l12.3,0.4V258.2z"/>
<path id="San_Miguel" class="st0" d="M218.4,309.3l19.6-50.7l16.8,0.4l6.8,60.9l-5.5,0.1L218.4,309.3z"/>
<path id="San_Ramón" class="st0" d="M261.6,319.9l-5.5,0.1l-3.6-1l-10.9,46.6l-2.2,10.6l30.4,3.6L261.6,319.9z"/>
<path id="La_Granja" class="st0" d="M261.6,319.9l8.2,59.9l4.7,0.6l18.2-4.6l-3.4-14h5.3l-1.6-50.2h-6.7l-13.1,7.5L261.6,319.9z"/>
<path id="San_Joaquín" class="st0" d="M261.6,319.9l-6.8-60.9l20.9-9.7l2.3,6.4l2.8,13l4.7,11.8l4.3,24.3l3.1,3.1l0.2,3.7h-6.7
	l-13.1,7.5L261.6,319.9z"/>
<path id="La_Pintana" class="st0" d="M292.7,375.8l-18.2,4.6l-35.1-4.2l-9.7,45.8l-8.1,33.2l32.4,3l-2.5,17.8h3.1l-1,8.3h21.2
	l2.4-11.9v-21.9l24.8-4.7l-0.9-7.7l-0.6-14.8l-3.4-4.6l-1.4-20.3h-1.3l-2-13.1h3.2L292.7,375.8z"/>
<path id="Providencia" class="st0" d="M288.8,155.7l-6,3.8l-1.5,3.9L273,172h-3.5l-5.1,3.7l-1,6.8l-3.9,7.4h1.2l-0.2,5.9l6.4,22.6
	l15.8-5l0.4,1.9l2.8,0.2l8.9-4.7l13.8-1.2l6.3,4.4l12.9-21.8l-3-3.3l-21.9-19.6l-7.5-2.8l3.7-10.5L288.8,155.7z"/>
<path id="Ñuñoa" class="st0" d="M266.9,218.4l15.8-5l0.4,1.9l2.8,0.2l8.9-4.7l13.8-1.2l6.3,4.4l12.8-21.8l10.8,6.8l3.7,19.4
	l-1.5,12.1l-5,15.7l-11.3,7l-25.4-0.2l-21.2,2.8l-2.2-6.4L266.9,218.4z"/>
<path id="La_Reina" class="st0" d="M327.8,192.1l10.8,6.8l3.7,19.4l-1.5,12.1l11.3,4.8l19.3,0.7l11-0.5l10,3.7l2.4-9.2l53.6,3.3
	l0.3-3.4l-3.3-6.2l-4.8-3.5l-1.4-2l-3.5-3.1l0.3-6.5L420.4,195l-10.7-2.4l-8.5-4.1l-17.9,2.5l-0.7-6.3l-25.1,3.3l-32.6,0.7
	L327.8,192.1z"/>
<path id="Macul" class="st0" d="M289.8,304.8l-4.3-24.3l-4.7-11.8l-2.8-13l21.2-2.8l25.4,0.2l11.3-7l-4.9,30.1l-10.7,21v8.9
	L289.8,304.8z"/>
<path id="Puente_Alto" class="st0" d="M409,467c-3.5,0.8-6.4-0.7-9.5-2.2c-4.9-4.6-8,3.7-11.7,5.6c-4.9-1.2-10.1-4.3-15.4-2.7
	c-3.9,3-8.1,7.2-13.6,4.6c-4.1-3.9-9,2.3-8.7,6.5c-3.9,0.6-9.1-0.9-11.9,3.7c-4.7,14.3-3.6,9.5-9.6,8.9c-4.6,0.8-5.5,10.1-11.6,7.9
	c-1.2-4.9-3.7-1-6.9-0.5c-5.1-1.6-8.8,4-14.2,2c-4.6,2.1-9.3,2.5-14.1,0.1c-5.2-1.5-12.3-0.9-14.1,5.2l6.4-9.8l0.6-12.2l2.4-11.9
	v-21.9l24.8-4.7l-0.9-7.7l-0.6-14.8l-3.4-4.6l-1.4-20.3l13.1-4.6l8.8,3.9l11.3-1.4l-0.4-6.4l34.6-6.7l-13.4-20.2l19.1,0.4l7.1,6.7
	l4.9-5.3l1.8,4.2l5.3-0.7l4.6-1.8l2.1,0.4l0.4,24l-10.3-3.9l-2.1,17.3l-2.8-0.4l-0.4,15.6l5.3,6.7l1.4,8.8l9.5,4.6l4.6-6l38.2-2.1
	l-0.4,6c-1.1,0-4.6,0.6-3.5,2.8c0.7,1.4,0.9,2.6,0.4,4.6c-0.4,1.8-0.6,4.2-2.5,5.3c-1.9,1.1-2.5,1.5-4.6,0.7c-1.3-0.5-2.9-2-3.5,0.4
	c-0.6,2.4,0.7,2.3,0.7,4.9c0,2.8-1.6,2.5-2.1,4.6c-0.4,1.6-1.8,3.2-3.9,3.2c-1.6,0-3.9-0.1-4.2-1.4c-0.1-0.3-0.6-4.5-1.1-4.6
	c-1-0.2-4.8-0.3-3.5,2.1c0.6,1.3,1,2.9,0,4.9C409.8,465.6,409.4,466.3,409,467z"/>
<path id="Pirque" class="st0" d="M334.4,508c0.4-4.6-5.6,3.9-8.1,4c-4.9,1.4-10.1,2.2-14.8,4.3c-2.5,3.1-5,7.1-8.6,6.2
	c-4.1,3.7-9.9,1.5-14.8,1.6c-2.9,3-10.3,5.3-11.7-0.2c0.6-3.4,9.6-8.7,1.5-8.6c-5.5,0.3-10.4-3.6-10.3-9.2c1.8-6.1,8.9-6.7,14.1-5.2
	c4.8,2.4,9.5,2,14.1-0.1c5.3,1.9,9.1-3.6,14.2-2c3.2-0.5,5.7-4.4,6.9,0.5c6.2,2.2,7-7.1,11.6-7.9c6,0.6,4.9,5.4,9.6-8.9
	c2.8-4.6,8-3.2,11.9-3.7c-0.3-4.2,4.7-10.4,8.7-6.5c5.5,2.6,9.7-1.6,13.6-4.6c5.4-1.6,10.5,1.5,15.4,2.7c3.7-1.9,6.8-10.2,11.7-5.6
	c3,1.5,5.9,3,9.5,2.2l0.7-0.7l1.4,2.8l-8.5,0.4l-10.6,3.5v7.8l3.5,3.2l-12.4,2.5l-4.2,4.2v-4.9l-12.7,2.1l1.1-4.6l-10.3,4.9
	l0.7,12.4l-9.9,4.2l-0.7-8.1l-7.8,3.5l3.9,4.9L334.4,508z M432.4,450c-1.9,1.1-2.5,1.5-4.6,0.7c-1.3-0.5-2.9-2-3.5,0.4
	c-0.6,2.4,0.7,2.3,0.7,4.9c0.2-0.1,0.4-0.1,0.5-0.3c0.3-0.3,0.6-0.9,1.2-1.2c0.4-0.2,1-0.6,1.7-0.6c0.7,0,1.5,0,2.2,0
	c0.6,0,1.2,0,1.7-0.1c0.5-0.1,1.1-0.4,1.3-0.8c0.2-0.6,0.4-0.8,0.2-1.6c-0.2-0.9-0.2-0.8-0.9-1.2C432.7,450.2,432.5,450.1,432.4,450
	z M434.9,444.7c-1.5,2.2,4-3.3,5.3-3.9c1.8-0.9,3.4-2.2,5-3.5c1.8-1.4,3-3.4,5-4.6c1.5-1.5,3.7-0.3,5.3,0.3c1.7,0.9,4.2,0.9,4.8-1.3
	c1.1-1.5,1.5-3.3,1.5-5.1c0.8-2.8,1.7,1.6,2.9,2c1.7,1.5,3.9,1.5,5.5-0.1c1.6-1.9,4.1-0.9,6.2-1.1c2.1,0,4.4,0.5,6.3-0.8
	c1.3-1.3,1.7-4.5-0.1-5.7c-1.7-0.1-3.3-0.6-5-0.4c-2-0.4-3.9,0.8-5.2,2.3c-1.1,1.3-3.3,1.1-4.7,0.5c-1.8-0.8-3.1-2.2-5-2.9
	c-1.5-0.6-3.7-1.1-5,0.1c-1.6,1.7-0.9,3.6-1.3,5.4c-0.7,1.5-0.6,2.9-2.7,1.9c-1.2-1.1-2.9-2.7-4.4-1.1c-2.3,2.5-4.8,4.9-7.2,7.3
	c-1.7,1-4.1,0.6-4.2,3.4c-1.1,0-4.6,0.6-3.5,2.8C435.2,441.5,435.4,442.7,434.9,444.7z M503.1,408.5l-0.7-0.9
	c-1.2-1.2-2.2-2.5-3.3-3.8c-0.8-0.9-2.1-1.4-3.4-1.2c-1.1,0-2.4,0.2-2.9,1.3c-1.1,1.4-1.5,3.3-2.3,4.9c-0.8,1.3-2.3,2.5-4,2.2
	c-1.3-0.2-2.3-1.1-3.4-1.7c-1.1-0.5-2.4-0.5-3.5-0.4c-1,0.8,0.3,1.6,0.9,2.1l-0.2,2.4c2.9-2.2,5.5,2.9,8.7,1.6
	c3.5-0.1,4.9-4,7.6-5.4C498.9,411.1,500.7,408.5,503.1,408.5z"/>
<path id="San_José_de_Maipo" class="st0" d="M480.3,413.4l0.2-2.4c-0.6-0.5-1.9-1.4-0.9-2.1c1.2-0.1,2.4-0.1,3.5,0.4
	c1.1,0.6,2.1,1.5,3.4,1.7c1.7,0.4,3.2-0.8,4-2.2c0.8-1.6,1.2-3.4,2.3-4.9c0.5-1.1,1.9-1.2,2.9-1.3c1.2-0.2,2.5,0.3,3.4,1.2
	c1,1.3,2.1,2.7,3.3,3.8l0.7,0.9c2.9,2,6,0.9,9-0.2c2.9,0.6,5.6-0.8,8.2-1.8c2.9-0.3,6.2-0.7,8.9,0.8c2.7,3.4,2.5-3.9,0.1-3.9
	c-3.1-1.8-6,1.3-9.2,1c-1-1.3-3.5-1.5-5.4-2.5c-2.7,0.7-2.9-3.9-4.7-3.1c-1.2,3.4-6,2.6-6.8-0.7c-2.5-1.5-0.5-7.4-4.1-6.9
	c-0.7,1.8-2.4,3.5-2.5,5.4c3.3,3.3-3,3-5,2.5c-2.8,1.5-6.4,1.2-7.3-2.5c-1.9,0.7-2.4,4.2-4.7,5c1.6,1.7,1.8,5-1.3,6.5
	c-1.1,1.4-1.5,7.2-4.1,4.1c-1-3.2-2.6,0.2-1.9,1.8c-1.2,3.5-5.9,3.6-6.1-0.5c-1.1,1.7-3.4,6-5.6,2.4c-1.3-4.2-5.2,3.7-7.4-0.2
	c-4.3-2.2-6.8,2.9-7.1,6.4s-1.5,9.2-0.3,8c1.2-1.2,2.4-2.4,3.5-3.7c1.5-1.6,3.2,0,4.4,1.1c2.1,1,2.1-0.4,2.7-1.9
	c0.3-1.8-0.3-3.7,1.3-5.4c1.2-1.2,3.5-0.7,5-0.1c1.9,0.7,3.2,2.1,5,2.9c1.4,0.7,3.6,0.9,4.7-0.5c1.2-1.5,3.2-2.7,5.2-2.3
	c1.7-0.2,3.3,0.3,5,0.4l0.1-1.8C482.2,417.4,478.2,415.5,480.3,413.4z"/>
<path id="La_Florida" class="st0" d="M289.8,304.8l3.1,3.1l0.2,3.7l1.6,50.2h-5.3l3.4,14l2.7,9.2h-3.2l2,13.1h1.3l13.1-4.6l8.8,3.9
	l11.3-1.4l-0.4-6.4l34.6-6.7l-13.4-20.2l19.1,0.4l7.1,6.7l4.7-5l5.5-4.7l-3.1-8.8l-7.5-5.7l0.5-2h8.1l-0.5-10.5l24,2.2l-0.4-9.8
	l-13.6-1.1l-0.3-14.7l3.9-4.7h-6.1l-3.4,3.4l-4.6,1.5l-25.5-0.5l-37.3-2.9L289.8,304.8z"/>
<path id="Peñalolén" class="st0" d="M448.3,233.2l-53.6-3.3l-2.4,9.2l-10-3.7l-11,0.5l-19.3-0.7l-11.3-4.8l-5,15.7l-4.9,30.1
	l-10.7,21l0.1,8.9l37.3,2.9l25.5,0.5l4.6-1.5l3.4-3.4h6.1l2-3.4l2.4,0.3l11.5-10.2l11-0.3l4-3.5l6.7-0.3v-3.5l12,5.6l7.2,0.8l11-9.4
	h8.8l4.3-3.5l4-0.5l11,4.8l7-0.3l9.4-5.1l6.2,0.3l-0.3-5.1l-1.9-4.6l-9.1-1.1l-2.9-2.4l-4.6-0.3l-6.4-8H488l-2.7-2.4l-13.9-0.5
	l-6.4-4.6l-0.5-3.7l-5.9-6.4L448.3,233.2z"/>
<path id="Las_Condes" class="st0" d="M513.5,267.2l-9.1-1.1l-2.9-2.4l-4.6-0.3l-6.4-8H488l-2.7-2.4l-13.9-0.5l-6.4-4.6l-0.5-3.7
	l-5.9-6.4l-10.3-4.6l0.3-3.4l-3.3-6.2l-4.8-3.5l-1.4-2l-3.5-3.1l0.3-6.5L420.4,195l-10.7-2.4l-8.5-4.1l-17.9,2.5l-0.7-6.3l-25.1,3.3
	l-32.6,0.7l-21.9-19.6l-7.5-2.8l3.7-10.5l85.8-36.7l8.5-10.4l19.9-9.5l11.1-1.2l7.3-4.7l4.3,0.2l5.2-4.5l11.3,1.7h8.3v6.9l-5.4,3.8
	L453,108v2.6l5.7,7.1l1.9,4l-0.5,5.2l2.8,1.4l1.4-0.2l9.7,6.1l16.5,3.3l2.8,4.3l-0.5,21.7l1.4,1.2v4.7l12.3,8.5l10.9,1.4l4.5,17.7
	l-1.2,5.7l4.7,9.2l1.2,17.5l-7.1,5.9l-2.4,6.4l3.3,4.7l-0.9,13h-2.1L513.5,267.2z"/>
<path id="Vitacura" class="st0" d="M292.5,138c-0.7,3.2,0.1,6.6-0.3,9.8l-0.1,5.5l-3.3,2.3l10.3,0.2l85.8-36.7l8.5-10.4l12.8-6.2
	l-3.4-3.9l-25.3,1.8l-7.6-5.3l-9.6-9.2l-6.3-3.3h-7.4l-1.2-1.4l-2.7-0.4l-1.8-2.7l-3.5,0.4l-2.7,2.2l-3.1-6.1l-6.1-3.3l-2.2,4.7
	l-2.7,1.6l-7.8,0.6l-5.7,6.5l-4.9,5.1l4.5,3.7l-0.8,11.4l-2.7,2.5l0.2,6.9l0.2,0.2l-4.2,1.9l-0.2,3.8l2.1,3.2l-0.2,5l-4.6,3.8
	L292.5,138z"/>
<path id="Lo_Barnechea" class="st0" d="M334.8,80.6l2.7-2.2l3.5-0.4l1.8,2.7l2.7,0.4l1.2,1.4h7.4l6.3,3.3l9.6,9.2l7.6,5.3l25.3-1.8
	l3.4,3.9l7-3.2l11.1-1.2l7.3-4.7l4.3,0.2l5.2-4.5l11.3,1.7h8.3l0.3,0.2l5.7-1.1l1.3,2.9l5.3-0.9l-0.2,3.7l1.8,2.6l12.3-10.7v-2.2
	l5.9-3.7l0.2-6.6l18.9-2.9l4.2-3.1l5.9-12.1l-42.3-26.3l-3.1-0.4l-6.4,5.5l-7.9-8.8l-27.2,7.2l-21.7-8.1L401,18.6L377.5,21v2.6
	l-7,5.9l-3.9-3.1l2-3.3l-4.8-0.9l-0.9,3.1l-4.8-1.3l-3.9,1.8l-0.4,3.5l3.5,5.5l9.9,7.7l-3.3,1.1l0.7,4.4l-3.9,2.4l-3.3-7.9l-2.6,0.2
	l-2.2,2.2l-7,3.5l-0.4,6.4l2.6,3.3l-9.2,5.3l2.9,4.6l-6.8,5.9L334.8,80.6z"/>
<path id="Huechuraba" class="st0" d="M187.2,71.4v6.2l5.4,15.2l7.1,1.1l33.2,14.6l23.4,11.1l36,28.4c0.4-3.2-0.4-6.6,0.3-9.8l4.1-6
	l4.6-3.8l0.2-5l0.4,0.6l-6.1-6.1l-2.8,0.5l-4.1-3.3h7.1l0.3-3.8l-9.2-1l0.5-2l6.1-6.4l-6.9-0.8l-0.8,2.3h-3.1l-0.5,1.3l-2.8-0.5
	l-1,4.1l-13.2-5.6l1.8-13.7l-3.8-4.8l-4.6-0.3l-5.3,3.3l-3.8,8.4l-4.1-0.5l-2,4.6l-7.1-3.3l2.3-5.6l-4.6-0.3l3.6-9.9l-1.8-2.8
	l-7.1,0.3v-3.8l-8.4-2l3.1-10.2l-3.8-3.6l0.8-2l-6.1-3.1l-0.8,3.1H210l-0.8-1.3h-2l0.8,2.5l-4.3,4.3h-4.1l0.5,2.5l-3.1,3.1h-3.6
	l-1.8,4.1L187.2,71.4z"/>
<text transform="matrix(1 0 0 1 158.6266 241.3371)" class="st1 st2">Estación</text>
<text transform="matrix(1 0 0 1 161.6857 251.3371)" class="st1 st2">Central</text>
<text transform="matrix(1 0 0 1 218.491 226.8362)" class="st1 st2">Santiago</text>
<text transform="matrix(1 0 0 1 93.0275 324.5546)" class="st1 st2">Maipú</text>
<text transform="matrix(1 0 0 1 130.6353 219.2426)" class="st1 st2">Lo Prado</text>
<text transform="matrix(1 0 0 1 60.1643 204.049)" class="st1 st2">Pudahuel</text>
<text transform="matrix(1 0 0 1 90.9529 180.0829)" class="st1 st2">Cerro Navia</text>
<text transform="matrix(1 0 0 1 145.5576 297.5213)" class="st1 st2">Cerrillos</text>
<text transform="matrix(1 0 0 1 33.2679 400.9906)" class="st1 st2">Padre</text>
<text transform="matrix(1 0 0 1 28.8221 410.9906)" class="st1 st2">Hurtado</text>
<text transform="matrix(1 0 0 1 165.6005 185.277)" class="st1 st2">Quinta</text>
<text transform="matrix(1 0 0 1 164.2187 195.277)" class="st1 st2">Normal</text>
<text transform="matrix(1 0 0 1 131.1703 151)" class="st1 st2">Renca</text>
<text transform="matrix(1 0 0 1 127.352 83.8983)" class="st1 st2">Quilicura</text>
<text transform="matrix(1 0 0 1 191.5656 123.258)" class="st1 st2">Conchalí</text>
<text transform="matrix(1 0 0 1 204.6193 165.725)" class="st1 st2">Indepen</text>
<text transform="matrix(1 0 0 1 207.9591 173.725)" class="st1 st2">dencia</text>
<text transform="matrix(1 0 0 1 241.7257 155.4483)" class="st1 st2">Recoleta</text>
<text transform="matrix(1 0 0 1 217.1683 103.9241)" class="st1 st2">Huechuraba</text>
<text transform="matrix(1 0 0 1 325.5526 116.735)" class="st1 st2">Vitacura</text>
<text transform="matrix(1 0 0 1 385.5565 163.6534)" class="st1 st2">Las Condes</text>
<text transform="matrix(1 0 0 1 397.089 63.9264)" class="st1 st2">Lo Barnechea</text>
<text transform="matrix(1 0 0 1 366.5828 215.1044)" class="st1 st2">La Reina</text>
<text transform="matrix(1 0 0 1 267.5333 190.3885)" class="st1 st2">Providencia</text>
<text transform="matrix(1 0 0 1 290.8217 233.0508)" class="st1 st2">Ñuñoa</text>
<text transform="matrix(1 0 0 1 369.6393 273.1893)" class="st1 st2">Peñalolén</text>
<text transform="matrix(1 0 0 1 293.5172 279.5756)" class="st1 st2">Macul</text>
<text transform="matrix(1 0 0 1 314.1516 348.8014)" class="st1 st2">La Florida</text>
<text transform="matrix(1 0 0 1 323.2529 441.7683)" class="st1 st2">Puente Alto</text>
<text transform="matrix(1 0 0 1 325.2832 499.2467)" class="st1 st2">Pirque</text>
<text transform="matrix(1 0 0 1 431.533 397.7401)" class="st1 st2">San José </text>
<text transform="matrix(1 0 0 1 432.0677 407.7401)" class="st1 st2">de Maipo</text>
<text transform="matrix(1 0 0 1 239.0367 425.7778)" class="st1 st2">La Pintana</text>
<text transform="matrix(1 0 0 1 155.5146 443.3145)" class="st1 st2">San Bernardo</text>
<text transform="matrix(1 0 0 1 191.3991 390.3466)" class="st1 st2">El Bosque</text>
<text transform="matrix(1 0 0 1 173.3093 326.2712)" class="st1 st2">Lo Espejo</text>
<text transform="matrix(1 0 0 1 197.6042 274.4105)" class="st1 st2">Pedro</text>
<text transform="matrix(1 0 0 1 194.8284 284.4105)" class="st1 st2">Aguirre</text>
<text transform="matrix(1 0 0 1 197.3284 294.4105)" class="st1 st2">Cerda</text>
<text transform="matrix(1 0 0 1 231.0613 286.6423)" class="st1 st2">San</text>
<text transform="matrix(1 0 0 1 225.2288 296.6423)" class="st1 st2">Miguel</text>
<text transform="matrix(1 0 0 1 221.3171 335.5887)" class="st1 st2">La</text>
<text transform="matrix(1 0 0 1 208.2604 345.5887)" class="st1 st2">Cisterna</text>
<text transform="matrix(1 0 0 1 245.9058 356.0941)" class="st1 st2">San</text>
<text transform="matrix(1 0 0 1 238.6841 366.0941)" class="st1 st2">Ramón</text>
<text transform="matrix(1 0 0 1 265.4036 281.9585)" class="st1 st2">San</text>
<text transform="matrix(1 0 0 1 256.5071 291.9585)" class="st1 st2">Joaquín</text>
<text transform="matrix(1 0 0 1 274.4622 339.2677)" class="st1 st2">La </text>
<text transform="matrix(1 0 0 1 265.2727 349.2677)" class="st1 st2">Granja</text>
</svg>
